<svg width="200" height="36" viewBox="0 0 200 36" fill="none" xmlns="http://www.w3.org/2000/svg">
<path d="M48.4211 25.0056L38.5965 0.48584H31.579L41.4036 25.0056H48.4211Z" fill="white"/>
<path d="M0 0.48584L14.0351 35.514H21.0526L7.01754 0.48584H0Z" fill="white"/>
<path d="M33.3334 13.6214L24.5614 35.514L21.0527 26.757L29.8246 4.86436L33.3334 13.6214Z" fill="white"/>
<path d="M59.6492 0.48584C56.8574 0.48584 54.18 1.59298 52.2059 3.56369C50.2319 5.53441 49.1228 8.20728 49.1228 10.9943C49.1228 13.7813 50.2319 16.4542 52.2059 18.4249C54.18 20.3956 56.8574 21.5027 59.6492 21.5027H66.6667C67.5973 21.5027 68.4898 21.8718 69.1478 22.5287C69.8058 23.1856 70.1755 24.0766 70.1755 25.0056C70.1755 25.9346 69.8058 26.8255 69.1478 27.4824C68.4898 28.1393 67.5973 28.5084 66.6667 28.5084H42.8071L45.6141 35.514H66.6667C69.4585 35.514 72.1359 34.4069 74.1099 32.4362C76.084 30.4654 77.193 27.7926 77.193 25.0056C77.193 22.2186 76.084 19.5457 74.1099 17.575C72.1359 15.6042 69.4585 14.4971 66.6667 14.4971H59.6492C58.7186 14.4971 57.8261 14.1281 57.1681 13.4712C56.5101 12.8143 56.1404 11.9233 56.1404 10.9943C56.1404 10.0653 56.5101 9.17433 57.1681 8.51743C57.8261 7.86052 58.7186 7.49148 59.6492 7.49148H84.2106V35.514H91.2281V0.48584H59.6492Z" fill="white"/>
<path d="M105.263 0.48584H98.2456V7.49148H105.263V0.48584Z" fill="white"/>
<path d="M168.421 14.4971H150.877V21.5027H168.421V14.4971Z" fill="white"/>
<path d="M119.298 0.48584C116.507 0.48584 113.829 1.59298 111.855 3.56369C109.881 5.53441 108.772 8.20728 108.772 10.9943C108.772 13.7813 109.881 16.4542 111.855 18.4249C113.829 20.3956 116.507 21.5027 119.298 21.5027H126.316C127.246 21.5027 128.139 21.8718 128.797 22.5287C129.455 23.1856 129.825 24.0766 129.825 25.0056C129.825 25.9346 129.455 26.8255 128.797 27.4824C128.139 28.1393 127.246 28.5084 126.316 28.5084H98.2456V35.514H126.316C129.108 35.514 131.785 34.4069 133.759 32.4362C135.733 30.4654 136.842 27.7926 136.842 25.0056C136.842 22.2186 135.733 19.5457 133.759 17.575C131.785 15.6042 129.108 14.4971 126.316 14.4971H119.298C118.368 14.4971 117.475 14.1281 116.817 13.4712C116.159 12.8143 115.789 11.9233 115.789 10.9943C115.789 10.0653 116.159 9.17433 116.817 8.51743C117.475 7.86052 118.368 7.49148 119.298 7.49148H168.421V0.48584H119.298Z" fill="white"/>
<path d="M177.193 4.86436L167.719 28.5084H147.368L140.351 35.514H171.93L180.702 13.6214L177.193 4.86436Z" fill="white"/>
<path d="M195.789 25.0056L185.965 0.48584H178.947L188.772 25.0056H195.789Z" fill="white"/>
<path d="M197.193 28.5084L200 35.514H192.982L190.175 28.5084H197.193Z" fill="white"/>
</svg>
